<mxfile host="app.diagrams.net" modified="2023-10-16T08:09:50.523Z" agent="Mozilla/5.0 (Windows NT 10.0; Win64; x64) AppleWebKit/537.36 (KHTML, like Gecko) Chrome/120.0.0.0 Safari/537.36" version="22.0.4" etag="fXKJvzU52pCwEM5igvus" type="github">
  <diagram name="第 1 页" id="uEY2MGFWJUYSJQZp4oGY">
    <mxGraphModel>
      <root>
        <mxCell id="0" />
        <mxCell id="1" parent="0" />
      </root>
    </mxGraphModel>
  </diagram>
</mxfile>
